<svg width="1264" height="261" viewBox="0 0 1264 261" fill="none" xmlns="http://www.w3.org/2000/svg">
<path d="M817.407 206.746C823.552 195.516 830.827 184.479 837.517 173.53C845.959 159.722 854.37 145.753 863.196 132.191C865.286 129.479 866.146 127.776 869.806 127.396C875.391 126.815 880.53 127.897 880.681 134.77C880.824 140.981 880.664 147.344 880.655 153.614L880.659 191.226C880.748 203.175 880.753 215.129 880.677 227.078C880.646 232.718 880.722 238.589 880.405 244.135C879.799 250.123 870.826 251.285 867.145 247.504C865.299 245.574 865.192 242.665 865.268 240.131C865.437 234.188 865.393 228.249 865.402 222.301L865.482 173.803C865.473 167.614 865.58 161.429 865.799 155.245C862.959 158.981 860.771 163.422 858.342 167.453C853.987 174.665 824.876 224.214 820.976 226.689C819.318 227.744 816.983 227.918 815.106 227.467C813.535 227.087 812.491 226.301 811.487 225.063C806.931 219.446 803.366 212.068 799.525 205.843C789.165 189.063 779.19 172.042 768.698 155.348C769.505 165.76 768.813 181.056 768.873 192.053C769.015 203.716 769.046 215.379 768.967 227.042C768.928 233.884 771.844 255.132 756.927 248.604C752.523 246.678 753.744 236.127 753.76 231.359L753.855 207.242L753.833 160.625C753.833 152.416 753.771 144.207 753.966 135.998C754.097 130.498 754.821 128.567 760.447 127.428C763.774 127.347 765.145 127.441 768.459 127.874C773.482 132.718 781.556 148.216 785.691 154.789C796.428 171.85 806.623 189.756 817.407 206.746Z" fill="#155DFC"/>
<path d="M448.909 127.383C453.646 127.151 458.82 126.266 461.305 131.373C467.48 144.069 472.636 157.363 478.175 170.375L496.494 214.177C499.766 222.051 503.207 230.001 506.292 237.933C506.791 239.774 508.454 243.269 507.584 245.096C504.879 250.766 495.074 251.504 492.164 245.337C488.169 236.878 485.071 228.003 481.66 219.321L458.453 219.361C447.028 219.343 435.603 219.396 424.178 219.517C422.24 225.272 414.946 245.372 410.455 248.483C408.762 249.658 406.599 250.234 404.563 249.841C402.482 249.434 399.935 247.888 398.827 246.038C397.959 244.586 397.867 242.83 398.371 241.244C400.656 234.049 404.102 227.043 407.045 220.103L422.285 183.804C427.309 171.596 432.411 159.419 437.59 147.273C439.779 142.121 442.01 136.597 444.411 131.538C445.372 129.514 446.983 128.411 448.909 127.383ZM452.149 150.611C450.092 156.487 447.371 162.417 444.992 168.203L429.92 204.953C437.832 205.101 445.747 205.146 453.661 205.079L475.795 204.994C472.259 198.193 455.067 151.983 452.149 150.611Z" fill="#1C398E"/>
<path d="M561.185 126.105C573.922 125.287 588.998 129.278 599.019 137.214C604.119 141.254 602.973 145.584 598.718 149.632C593.844 154.266 590.969 151.192 586.934 147.921C579.996 143.367 572.043 141.321 563.978 141.24C534.731 140.954 529.046 171.725 559.42 178.357C571.312 180.957 589.408 186.074 597.921 194.52C608.776 205.285 609.29 225.112 599.123 236.587C589.247 248.389 573.855 250.798 559.55 250.52C556.894 250.284 554.094 250.051 551.485 249.591C544.825 248.42 537.694 245.994 531.869 242.495C528.475 240.462 521.597 236.382 520.659 232.355C519.804 228.088 523.784 222.435 528.088 221.979C531.606 221.608 534.71 225.165 537.183 227.284C545.478 234.389 557.158 236.73 567.826 235.93C574.654 235.417 581.441 233.133 585.915 227.641C588.764 224.16 590.101 219.682 589.628 215.2C587.999 199.806 563.545 196.785 550.234 192.772C525.252 185.243 513.956 162.381 529.948 139.85C536.094 131.195 550.322 126.94 561.185 126.105Z" fill="#1C398E"/>
<path d="M1159.72 161.43C1182.6 160.576 1197.52 176.261 1199.22 198.626C1200.16 211.125 1195.69 210.254 1185.2 210.124C1182.14 210.084 1178.82 210.017 1175.74 210.004L1135.65 209.825C1136.61 216.461 1137.59 221.555 1141.88 227.033C1146.31 232.682 1152.81 236.32 1159.94 237.124C1170.56 238.268 1178.04 234.54 1186.01 228.168C1191.27 224.799 1199.16 232.749 1193.86 238.339C1179.85 253.126 1151.73 254.806 1136.22 241.739C1117.46 225.938 1115.37 192.884 1131.51 174.576C1139.33 165.643 1148.15 162.341 1159.72 161.43ZM1180.18 183.817C1175.28 176.784 1166.41 173.834 1158.09 174.786C1144.05 177.351 1138.89 184.425 1135.88 197.951L1163.45 197.822L1185.19 197.857C1184.07 192.602 1183.33 188.349 1180.18 183.817Z" fill="#155DFC"/>
<path d="M933.7 161.411C942.896 161.268 952.288 162.658 959.504 168.883C963.217 172.123 965.9 176.382 967.224 181.132C970.192 191.508 967.816 222.574 968.788 235.636L968.847 236.342C971.592 237.53 975.358 238.429 975.635 242.289C976.201 250.31 963.074 252.232 958.541 247.147C955.738 244.001 955.72 242.522 955.733 238.545C955.047 239.327 954.333 240.082 953.598 240.815C946.747 247.41 937.543 250.977 928.054 250.713C919.206 250.449 912.038 247.5 905.972 241.092C902.344 235.814 900.187 230.304 900.414 223.812C901.35 197.08 934.722 197.174 954.066 197.92C954.084 195.717 954.128 193.478 954.025 191.302C953.316 175.836 939.344 172.333 926.547 176.136C921.189 177.727 917.374 180.569 912.85 183.509C908.754 181.261 902.741 176.476 907.354 171.44C913.727 164.486 924.648 162.082 933.7 161.411ZM954.378 209.467C949.083 209.458 942.887 209.306 937.677 209.65C930.634 210.182 922.986 210.719 918.021 216.64C915.89 219.156 914.847 222.422 915.132 225.715C915.89 234.929 925.5 237.816 933.251 237.633C937.984 236.972 940.89 236.319 945.151 234.094C955.898 228.495 953.754 219.7 954.378 209.467Z" fill="#155DFC"/>
<path d="M634.299 127.374C639.978 127.003 642.044 126.927 645.567 131.704C646.284 138.434 645.831 156.773 645.846 164.303L645.789 234.134C663.907 234.152 682.52 233.643 700.535 234.577C704.376 234.778 707.964 244.729 699.899 249.028C698.09 249.274 695.375 249.296 693.507 249.269C673.621 248.979 653.622 249.609 633.752 249.247C632.209 248.233 631.195 247.187 629.857 245.927C628.754 240.569 629.156 134.108 629.895 131.579C630.483 129.568 632.6 128.33 634.299 127.374Z" fill="#1C398E"/>
<path d="M1016.01 161.412C1018.95 161.331 1021.89 161.479 1024.81 161.854C1035.55 163.315 1058.62 171.372 1040.39 183.281C1033.45 178.848 1028.86 175.22 1020.1 174.536C1013.38 174.009 1003.11 178.29 1003.6 186.114C1004.24 196.463 1023.49 197.983 1030.79 201.035C1035.53 203.014 1040.41 204.632 1044.18 208.515C1053.49 217.113 1052.4 233.097 1043.82 241.842C1036.74 249.064 1027.31 250.507 1017.55 250.583C1006.36 249.73 996.932 246.941 989.381 238.245C984.803 232.977 993.847 226.26 995.291 227.038C999.544 229.335 1005.41 234.702 1011.4 236.167C1017.63 237.687 1023.88 238.46 1029.88 235.332C1034.12 232.99 1035.5 229.732 1036.73 225.313C1031.62 205.374 991.935 216.228 990.059 188.733C988.9 171.712 1000.28 162.922 1016.01 161.412Z" fill="#155DFC"/>
<path d="M1077.19 139.967C1078.47 139.846 1079.75 139.783 1081.04 139.783C1090.87 139.81 1087.69 155.598 1087.61 162.667C1091.77 162.609 1109.38 161.438 1111.35 164.602C1120.82 179.795 1095.54 176.122 1087.69 175.975L1087.64 210.062C1087.63 217.408 1085.94 230.264 1092.25 234.983C1100.18 240.908 1112 228.276 1113.31 242.535C1112.31 249.618 1102.92 250.382 1097.22 250.302C1071.34 249.949 1073.15 226.502 1073.07 208.895C1072.99 197.925 1073 186.95 1073.11 175.979C1069.41 176.069 1062.85 176.891 1059.89 174.527C1057.41 172.552 1057.46 166.416 1059.93 164.397C1063.06 161.841 1069.29 162.703 1073.2 162.837C1073.04 157.278 1072.61 150.942 1073.14 145.374C1073.41 142.496 1074.69 141.213 1077.19 139.967Z" fill="#155DFC"/>
<path d="M1242.23 161.814C1248.13 161.416 1271.71 159.74 1261.13 174.724C1258.29 177.306 1250.8 175.296 1247.5 175.273C1228.03 175.144 1230.77 194.462 1230.76 208.042L1230.77 241.32C1230.77 242.607 1230.89 245.042 1230.2 246.034C1226.58 251.28 1217.95 251.575 1216.84 244.113C1216.26 240.515 1216.44 236.753 1216.48 233.102C1216.58 222.596 1216.62 212.081 1216.53 201.576C1216.44 191.624 1215.82 181.243 1221.84 172.655C1226.83 165.527 1234.04 163.172 1242.23 161.814Z" fill="#155DFC"/>
<path d="M93.0299 15.8787C109.24 -2.78683 137.222 -6.50545 154.892 12.8816C157.187 15.4207 159.143 18.2476 160.712 21.2917C162.511 24.7116 164.591 29.915 166.155 33.5486C169.686 41.7554 173.16 49.9868 176.574 58.2429L206.671 129.92C208.38 133.976 209.987 138.09 211.662 142.159C212.76 144.824 213.87 147.973 215.348 150.414C216.466 152.257 217.868 153.911 219.502 155.314C225.008 160.015 232.02 159.77 237.276 154.855C241.405 150.998 244.436 146.287 247.577 141.633L256.878 128.007C258.724 125.304 261.153 121.564 263.179 119.067L263.372 118.724C264.375 116.973 266.025 114.678 267.151 113.01C269.917 108.903 272.704 104.812 275.516 100.738C279.77 94.3425 284.103 88.0013 288.516 81.7156C290.67 78.6413 294.259 73.4206 296.794 70.8581C299.463 68.1246 302.776 66.1102 306.428 65.0037C311.643 63.4628 317.171 63.9529 321.958 66.5701C326.592 69.105 329.4 73.3256 330.861 78.3347C332.312 83.3103 331.61 98.7798 331.61 104.852L331.593 155.556L331.603 207.158C331.608 214.938 331.976 226.498 331.547 234.08C331.365 236.919 330.537 239.677 329.13 242.146C324.593 250.163 314.73 252.379 306.971 247.762C303.201 245.532 300.48 241.875 299.426 237.615C298.42 233.579 298.785 220.998 298.795 216.119L298.775 160.443L298.809 145.452C298.824 141.153 299.903 129.107 292.407 131.177C287.708 132.475 282.246 144.749 278.763 148.141C275.539 153.24 271.496 158.666 268.052 163.67C264.135 169.389 260.083 175.001 255.795 180.427C241.667 198.292 216.761 201.867 200.192 184.781C191.557 175.876 187.557 165.12 182.387 153.933L169.311 125.231L144.399 71.5759C141.552 65.5241 136.792 52.7548 132.024 48.7263C129.199 46.3399 125.631 44.8873 121.901 45.2527C117.819 45.6526 113.889 48.1719 111.518 51.4822C108.684 55.4386 106.458 61.8581 104.441 66.4099L94.2809 89.1101C76.5698 128.477 59.8919 168.304 44.2653 208.549L36.7419 227.389C34.6476 232.642 32.0223 241.12 28.5905 245.286C19.2009 256.679 0.921891 250.902 0.044596 235.83C-0.410387 228.017 2.69808 223.109 5.62663 216.146L13.9313 196.231L41.0671 132.032L70.9323 61.9958C74.1814 54.2504 77.5022 46.5345 80.8932 38.8503C84.2489 31.0932 87.4165 22.3421 93.0299 15.8787Z" fill="url(#paint0_linear_2_92)"/>
<path d="M125.942 139.043C128.241 138.983 130.406 139.306 131.835 141.327C132.854 142.769 133.573 145.139 133.065 146.845C130.763 154.587 121.682 158.107 115.513 162.193C112.802 163.961 110.793 165.788 109.064 168.401C105.438 173.883 108.661 177.632 110.679 182.967C111.619 185.469 112.165 188.103 112.297 190.774C112.656 197.736 110.561 198.801 109.378 204.499C109.594 205.242 109.543 205.024 110.159 205.638C110.631 205.732 111.291 205.823 111.628 205.401C117.362 198.222 117.024 187.422 113.492 179.323C112.425 176.877 110.711 174.671 111.476 172.46C113.69 166.07 122.448 162.505 128.048 159.167C126.17 163.334 123.188 168.568 125.015 173.179C126.932 178.013 132.292 180.269 137.094 178.276C137.26 178.746 137.436 179.212 137.623 179.674C138.552 182.007 140.389 183.862 142.709 184.812C144.784 185.651 146.031 185.664 148.115 184.75C150.406 183.746 153.725 180.998 152.298 178.22C151.203 178.243 147.674 183.736 143.387 180.958C142.241 180.221 141.463 179.027 141.251 177.678C141.162 177.074 141.284 176.565 141.525 176.013C142.71 173.303 144.632 170.766 146.015 168.131C148.086 164.187 150.31 158.173 152.732 154.734C153.645 153.439 154.883 152.37 156.493 152.131C157.991 151.908 159.428 152.437 160.636 153.302C162.354 154.533 163.683 156.198 163.774 158.399C163.906 161.565 156.662 183.19 155.058 187.543C153.717 191.185 152.309 194.876 150.554 198.342C148.185 203.017 144.189 206.811 142.367 211.738C141.182 214.943 140.779 218.656 141.358 222.029C142.24 227.158 145.222 231.506 149.465 234.461C157.038 239.733 167.794 239.938 176.598 238.389C193.034 234.988 205.926 226.892 217.126 214.423C219.427 211.861 223.094 205.235 227.392 207.786C228.222 208.286 228.81 209.109 229.013 210.06C229.829 213.875 223.912 222.74 221.761 225.976C198.146 261.445 146.211 271.522 110.888 247.876C93.4415 236.764 81.3248 218.624 77.4031 198.369C74.8952 185.416 77.6593 168.559 88.6023 160.394C96.4992 154.502 116.385 140.745 125.942 139.043ZM141.422 143.225C144.349 143.017 148.038 143.939 149.282 146.969C151.554 152.504 145.981 159.043 143.879 164.033C142.56 167.164 140.972 170.45 139.137 173.242C138.583 174.084 137.428 174.611 136.531 175.027C125.022 177.278 127.707 166.976 131.214 160.912C132.092 159.297 132.741 157.307 133.618 155.72C136.08 151.266 136.177 145.147 141.422 143.225ZM119.72 86.3458C130.665 86.4479 127.787 96.2169 126.025 103.296C123.187 114.698 120.994 126.466 118.057 137.823C113.408 140.505 108.638 142.6 103.737 145.51C101.725 146.755 100.389 147.662 98.4978 149.083C100.101 144.586 101.581 137.417 102.736 132.66L109.648 104.492C110.397 101.462 111.013 98.3584 111.737 95.3204C112.909 90.4049 114.323 87.1692 119.72 86.3458ZM136.463 92.4806C139.146 92.3284 141.311 92.9092 143.021 95.1691C145.883 98.9517 143.59 105.814 142.764 110.163C141.664 116.037 140.534 121.905 139.373 127.768C138.462 132.246 137.31 137.077 136.72 141.563C135.681 139.863 135.356 139.181 133.955 137.768C130.341 134.83 127.018 134.524 122.696 136.014C123.586 133.361 124.382 128.58 125.022 125.673L129.506 106.02C130.21 102.953 130.911 99.3237 132.022 96.4113C132.927 94.0398 134.297 93.3741 136.463 92.4806Z" fill="url(#paint1_linear_2_92)"/>
<defs>
<linearGradient id="paint0_linear_2_92" x1="307.155" y1="251.282" x2="40.8048" y2="251.282" gradientUnits="userSpaceOnUse">
<stop stop-color="#155DFC"/>
<stop offset="1" stop-color="#1C398E"/>
</linearGradient>
<linearGradient id="paint1_linear_2_92" x1="72.4226" y1="175.344" x2="239.609" y2="175.344" gradientUnits="userSpaceOnUse">
<stop stop-color="#1C398E"/>
<stop offset="1" stop-color="#155DFC"/>
</linearGradient>
</defs>
</svg>
