<svg width="332" height="261" viewBox="0 0 332 261" fill="none" xmlns="http://www.w3.org/2000/svg">
<path d="M93.0299 15.8787C109.24 -2.78683 137.222 -6.50545 154.892 12.8816C157.187 15.4207 159.143 18.2476 160.712 21.2917C162.511 24.7116 164.591 29.915 166.155 33.5486C169.686 41.7554 173.16 49.9868 176.574 58.2429L206.671 129.92C208.38 133.976 209.987 138.09 211.662 142.159C212.76 144.824 213.87 147.973 215.348 150.414C216.466 152.257 217.868 153.911 219.502 155.314C225.008 160.015 232.02 159.77 237.276 154.855C241.405 150.998 244.436 146.287 247.577 141.633L256.878 128.007C258.724 125.304 261.153 121.564 263.179 119.067L263.372 118.724C264.375 116.973 266.025 114.678 267.151 113.01C269.917 108.903 272.704 104.812 275.516 100.738C279.77 94.3425 284.103 88.0013 288.516 81.7156C290.67 78.6413 294.259 73.4206 296.794 70.8581C299.463 68.1246 302.776 66.1102 306.428 65.0037C311.643 63.4628 317.171 63.9529 321.958 66.5701C326.592 69.105 329.4 73.3256 330.861 78.3347C332.312 83.3103 331.61 98.7798 331.61 104.852L331.593 155.556L331.603 207.158C331.608 214.938 331.976 226.498 331.547 234.08C331.365 236.919 330.537 239.677 329.13 242.146C324.593 250.163 314.73 252.379 306.971 247.762C303.201 245.532 300.48 241.875 299.426 237.615C298.42 233.579 298.785 220.998 298.795 216.119L298.775 160.443L298.809 145.452C298.824 141.153 299.903 129.107 292.407 131.177C287.708 132.475 282.246 144.749 278.763 148.141C275.539 153.24 271.496 158.666 268.052 163.67C264.135 169.389 260.083 175.001 255.795 180.427C241.667 198.292 216.761 201.867 200.192 184.781C191.557 175.876 187.557 165.12 182.387 153.933L169.311 125.231L144.399 71.5759C141.552 65.5241 136.792 52.7548 132.024 48.7263C129.199 46.3399 125.631 44.8873 121.901 45.2527C117.819 45.6526 113.889 48.1719 111.518 51.4822C108.684 55.4386 106.458 61.8581 104.441 66.4099L94.2809 89.1101C76.5698 128.477 59.8919 168.304 44.2653 208.549L36.7419 227.389C34.6476 232.642 32.0223 241.12 28.5905 245.286C19.2009 256.679 0.921891 250.902 0.044596 235.83C-0.410387 228.017 2.69808 223.109 5.62663 216.146L13.9313 196.231L41.0671 132.032L70.9323 61.9958C74.1814 54.2504 77.5022 46.5345 80.8932 38.8503C84.2489 31.0932 87.4165 22.3421 93.0299 15.8787Z" fill="url(#paint0_linear_2_81)"/>
<path d="M125.942 139.043C128.241 138.983 130.406 139.306 131.835 141.327C132.854 142.769 133.573 145.139 133.065 146.845C130.763 154.587 121.682 158.107 115.513 162.193C112.802 163.961 110.793 165.788 109.064 168.401C105.438 173.883 108.661 177.632 110.679 182.967C111.619 185.469 112.165 188.103 112.297 190.774C112.656 197.736 110.561 198.801 109.378 204.499C109.594 205.242 109.543 205.024 110.159 205.638C110.631 205.732 111.291 205.823 111.628 205.401C117.362 198.222 117.024 187.422 113.492 179.323C112.425 176.877 110.711 174.671 111.476 172.46C113.69 166.07 122.448 162.505 128.048 159.167C126.17 163.334 123.188 168.568 125.015 173.179C126.932 178.013 132.292 180.269 137.094 178.276C137.26 178.746 137.436 179.212 137.623 179.674C138.552 182.007 140.389 183.862 142.709 184.812C144.784 185.651 146.031 185.664 148.115 184.75C150.406 183.746 153.725 180.998 152.298 178.22C151.203 178.243 147.674 183.736 143.387 180.958C142.241 180.221 141.463 179.027 141.251 177.678C141.162 177.074 141.284 176.565 141.525 176.013C142.71 173.303 144.632 170.766 146.015 168.131C148.086 164.187 150.31 158.173 152.732 154.734C153.645 153.439 154.883 152.37 156.493 152.131C157.991 151.908 159.428 152.437 160.636 153.302C162.354 154.533 163.683 156.198 163.774 158.399C163.906 161.565 156.662 183.19 155.058 187.543C153.717 191.185 152.309 194.876 150.554 198.342C148.185 203.017 144.189 206.811 142.367 211.738C141.182 214.943 140.779 218.656 141.358 222.029C142.24 227.158 145.222 231.506 149.465 234.461C157.038 239.733 167.794 239.938 176.598 238.389C193.034 234.988 205.926 226.892 217.126 214.423C219.427 211.861 223.094 205.235 227.392 207.786C228.222 208.286 228.81 209.109 229.013 210.06C229.829 213.875 223.912 222.74 221.761 225.976C198.146 261.445 146.211 271.522 110.888 247.876C93.4415 236.764 81.3248 218.624 77.4031 198.369C74.8952 185.416 77.6593 168.559 88.6023 160.394C96.4992 154.502 116.385 140.745 125.942 139.043ZM141.422 143.225C144.349 143.017 148.038 143.939 149.282 146.969C151.554 152.504 145.981 159.043 143.879 164.033C142.56 167.164 140.972 170.45 139.137 173.242C138.583 174.084 137.428 174.611 136.531 175.027C125.022 177.278 127.707 166.976 131.214 160.912C132.092 159.297 132.741 157.307 133.618 155.72C136.08 151.266 136.177 145.147 141.422 143.225ZM119.72 86.3458C130.665 86.4479 127.787 96.2169 126.025 103.296C123.187 114.698 120.994 126.466 118.057 137.823C113.408 140.505 108.638 142.6 103.737 145.51C101.725 146.755 100.389 147.662 98.4978 149.083C100.101 144.586 101.581 137.417 102.736 132.66L109.648 104.492C110.397 101.462 111.013 98.3584 111.737 95.3204C112.909 90.4049 114.323 87.1692 119.72 86.3458ZM136.463 92.4806C139.146 92.3284 141.311 92.9092 143.021 95.1691C145.883 98.9517 143.59 105.814 142.764 110.163C141.664 116.037 140.534 121.905 139.373 127.768C138.462 132.246 137.31 137.077 136.72 141.563C135.681 139.863 135.356 139.181 133.955 137.768C130.341 134.83 127.018 134.524 122.696 136.014C123.586 133.361 124.382 128.58 125.022 125.673L129.506 106.02C130.21 102.953 130.911 99.3237 132.022 96.4113C132.927 94.0398 134.297 93.3741 136.463 92.4806Z" fill="url(#paint1_linear_2_81)"/>
<defs>
<linearGradient id="paint0_linear_2_81" x1="307.155" y1="251.282" x2="40.8048" y2="251.282" gradientUnits="userSpaceOnUse">
<stop stop-color="#155DFC"/>
<stop offset="1" stop-color="#1C398E"/>
</linearGradient>
<linearGradient id="paint1_linear_2_81" x1="72.4226" y1="175.344" x2="239.609" y2="175.344" gradientUnits="userSpaceOnUse">
<stop stop-color="#1C398E"/>
<stop offset="1" stop-color="#155DFC"/>
</linearGradient>
</defs>
</svg>
