<svg width="503" height="392" viewBox="0 0 503 392" fill="none" xmlns="http://www.w3.org/2000/svg">
<path d="M245.255 355.528C248.641 349.34 252.649 343.259 256.336 337.226C260.988 329.617 265.622 321.92 270.485 314.447C271.637 312.952 272.111 312.014 274.128 311.805C277.205 311.485 280.037 312.081 280.12 315.868C280.199 319.29 280.111 322.797 280.106 326.251L280.108 346.977C280.157 353.561 280.16 360.148 280.118 366.732C280.101 369.839 280.143 373.075 279.968 376.13C279.634 379.43 274.69 380.07 272.661 377.987C271.645 376.923 271.586 375.32 271.627 373.924C271.721 370.649 271.696 367.377 271.701 364.1L271.745 337.376C271.74 333.966 271.799 330.558 271.92 327.15C270.355 329.209 269.149 331.656 267.811 333.877C265.411 337.851 249.371 365.153 247.222 366.518C246.308 367.099 245.021 367.195 243.987 366.946C243.121 366.737 242.546 366.303 241.993 365.621C239.483 362.526 237.518 358.461 235.402 355.031C229.693 345.785 224.197 336.406 218.415 327.207C218.86 332.944 218.479 341.372 218.512 347.432C218.59 353.859 218.607 360.285 218.564 366.712C218.542 370.482 220.148 382.19 211.929 378.593C209.502 377.532 210.175 371.718 210.184 369.091L210.236 355.802L210.224 330.115C210.225 325.592 210.19 321.068 210.298 316.545C210.37 313.514 210.769 312.45 213.869 311.822C215.702 311.778 216.457 311.83 218.283 312.068C221.051 314.738 225.5 323.277 227.779 326.899C233.695 336.3 239.313 346.167 245.255 355.528Z" fill="#155DFC"/>
<path d="M42.2042 311.797C44.8143 311.669 47.6658 311.182 49.0353 313.997C52.4376 320.992 55.2791 328.318 58.3312 335.488L68.4249 359.624C70.2281 363.962 72.1236 368.342 73.8234 372.712C74.0982 373.727 75.0152 375.653 74.5353 376.66C73.0452 379.784 67.6428 380.191 66.0392 376.793C63.8379 372.131 62.1309 367.242 60.2511 362.458L47.463 362.479C41.1677 362.469 34.8723 362.499 28.5773 362.566C27.5092 365.738 23.4906 376.811 21.0158 378.526C20.0831 379.173 18.8917 379.492 17.7697 379.275C16.6226 379.051 15.2195 378.199 14.6085 377.179C14.1304 376.379 14.0799 375.412 14.3576 374.538C15.617 370.573 17.5156 366.712 19.1369 362.888L27.5343 342.887C30.3028 336.16 33.1142 329.45 35.9679 322.757C37.1741 319.918 38.4027 316.875 39.7257 314.087C40.2552 312.972 41.1431 312.364 42.2042 311.797ZM43.9904 324.597C42.8569 327.835 41.3573 331.102 40.046 334.291L31.7413 354.541C36.1012 354.622 40.4627 354.647 44.8234 354.61L57.0187 354.563C55.0703 350.815 45.5994 325.357 43.9904 324.597Z" fill="#1C398E"/>
<path d="M104.071 311.093C111.089 310.643 119.397 312.842 124.918 317.215C127.729 319.441 127.097 321.827 124.753 324.057C122.067 326.611 120.483 324.917 118.26 323.114C114.436 320.605 110.054 319.478 105.61 319.433C89.4945 319.276 86.3621 336.231 103.098 339.885C109.652 341.318 119.623 344.138 124.314 348.791C130.295 354.723 130.578 365.648 124.976 371.972C119.534 378.475 111.053 379.802 103.17 379.649C101.707 379.519 100.164 379.391 98.7263 379.137C95.0565 378.492 91.1273 377.155 87.9172 375.227C86.0474 374.106 82.2573 371.858 81.7408 369.64C81.2694 367.288 83.4627 364.173 85.834 363.922C87.7723 363.718 89.4827 365.678 90.8456 366.845C95.4163 370.76 101.852 372.05 107.73 371.61C111.493 371.326 115.233 370.068 117.698 367.042C119.268 365.124 120.005 362.657 119.744 360.187C118.846 351.704 105.372 350.04 98.0372 347.829C84.2715 343.68 78.0469 331.082 86.8592 318.667C90.2453 313.898 98.0856 311.554 104.071 311.093Z" fill="#1C398E"/>
<path d="M433.875 330.558C446.481 330.088 454.707 338.73 455.64 351.054C456.161 357.941 453.697 357.461 447.919 357.39C446.231 357.368 444.404 357.331 442.707 357.324L420.612 357.225C421.142 360.881 421.68 363.689 424.048 366.707C426.486 369.82 430.07 371.824 433.995 372.267C439.85 372.897 443.969 370.844 448.36 367.332C451.263 365.476 455.608 369.857 452.688 372.937C444.966 381.085 429.474 382.01 420.926 374.811C410.589 366.104 409.437 347.89 418.333 337.802C422.643 332.88 427.499 331.06 433.875 330.558ZM445.15 342.894C442.448 339.018 437.566 337.393 432.98 337.917C425.244 339.331 422.4 343.229 420.74 350.682L435.93 350.611L447.913 350.63C447.291 347.735 446.889 345.391 445.15 342.894Z" fill="#155DFC"/>
<path d="M309.335 330.548C314.402 330.469 319.577 331.235 323.554 334.665C325.599 336.45 327.078 338.797 327.808 341.414C329.443 347.131 328.134 364.25 328.669 371.447L328.701 371.836C330.214 372.491 332.289 372.986 332.441 375.113C332.753 379.533 325.52 380.592 323.022 377.79C321.478 376.057 321.468 375.241 321.476 373.05C321.097 373.481 320.704 373.897 320.299 374.301C316.524 377.935 311.452 379.9 306.224 379.755C301.348 379.609 297.398 377.985 294.056 374.454C292.056 371.546 290.868 368.509 290.993 364.931C291.509 350.202 309.897 350.254 320.557 350.665C320.566 349.451 320.592 348.217 320.535 347.018C320.145 338.497 312.445 336.566 305.394 338.661C302.441 339.538 300.339 341.104 297.846 342.724C295.589 341.486 292.275 338.848 294.817 336.073C298.329 332.242 304.347 330.917 309.335 330.548ZM320.728 357.028C317.811 357.023 314.397 356.939 311.526 357.129C307.646 357.422 303.431 357.718 300.695 360.98C299.521 362.366 298.946 364.166 299.103 365.98C299.521 371.058 304.816 372.649 309.087 372.548C311.695 372.183 313.297 371.824 315.645 370.598C321.566 367.512 320.385 362.667 320.728 357.028Z" fill="#155DFC"/>
<path d="M144.359 311.793C147.488 311.588 148.626 311.546 150.567 314.179C150.963 317.887 150.713 327.992 150.721 332.141L150.689 370.62C160.673 370.63 170.929 370.349 180.856 370.864C182.973 370.974 184.949 376.458 180.505 378.827C179.509 378.962 178.013 378.974 176.983 378.96C166.026 378.8 155.006 379.147 144.057 378.947C143.207 378.388 142.648 377.812 141.911 377.118C141.303 374.166 141.524 315.503 141.932 314.11C142.256 313.002 143.422 312.32 144.359 311.793Z" fill="#1C398E"/>
<path d="M354.691 330.548C356.31 330.504 357.931 330.585 359.537 330.792C365.456 331.597 378.171 336.037 368.121 342.599C364.299 340.156 361.769 338.157 356.943 337.78C353.242 337.489 347.583 339.848 347.851 344.16C348.202 349.863 358.812 350.7 362.835 352.381C365.444 353.472 368.136 354.364 370.213 356.503C375.344 361.241 374.742 370.049 370.012 374.867C366.109 378.846 360.917 379.642 355.538 379.684C349.374 379.213 344.177 377.677 340.016 372.885C337.494 369.982 342.477 366.281 343.273 366.71C345.616 367.975 348.851 370.933 352.149 371.74C355.58 372.577 359.024 373.003 362.334 371.28C364.67 369.989 365.429 368.194 366.107 365.759C363.292 354.772 341.424 360.753 340.39 345.603C339.751 336.224 346.024 331.38 354.691 330.548Z" fill="#155DFC"/>
<path d="M388.403 318.731C389.105 318.665 389.813 318.631 390.52 318.631C395.938 318.645 394.187 327.345 394.14 331.24C396.434 331.208 406.138 330.563 407.224 332.306C412.44 340.678 398.512 338.654 394.187 338.573L394.157 357.355C394.155 361.403 393.224 368.487 396.7 371.088C401.066 374.353 407.58 367.392 408.304 375.249C407.752 379.152 402.579 379.573 399.438 379.528C385.178 379.334 386.173 366.414 386.129 356.713C386.084 350.668 386.092 344.62 386.153 338.575C384.112 338.625 380.502 339.078 378.866 337.775C377.501 336.687 377.528 333.306 378.891 332.193C380.615 330.785 384.046 331.26 386.2 331.334C386.116 328.27 385.876 324.779 386.168 321.711C386.32 320.125 387.025 319.418 388.403 318.731Z" fill="#155DFC"/>
<path d="M479.343 330.77C482.59 330.551 495.583 329.627 489.755 337.883C488.192 339.307 484.066 338.199 482.244 338.186C471.516 338.115 473.024 348.759 473.019 356.242L473.026 374.579C473.029 375.288 473.09 376.63 472.714 377.177C470.718 380.068 465.965 380.23 465.349 376.118C465.029 374.136 465.133 372.063 465.155 370.051C465.209 364.262 465.228 358.468 465.179 352.679C465.13 347.196 464.786 341.476 468.104 336.743C470.858 332.816 474.827 331.518 479.343 330.77Z" fill="#155DFC"/>
<path d="M168.155 41.152C184.365 22.4865 212.347 18.7679 230.017 38.1549C232.312 40.694 234.268 43.5209 235.836 46.5651C237.635 49.985 239.715 55.1883 241.28 58.8219C244.811 67.0287 248.285 75.2601 251.699 83.5162L281.795 155.193C283.505 159.25 285.111 163.364 286.786 167.432C287.884 170.098 288.995 173.246 290.473 175.687C291.591 177.53 292.993 179.184 294.626 180.588C300.133 185.289 307.145 185.043 312.401 180.129C316.529 176.271 319.56 171.56 322.702 166.906L332.002 153.28C333.849 150.577 336.278 146.837 338.304 144.34L338.496 143.998C339.5 142.247 341.15 139.952 342.276 138.283C345.041 134.176 347.829 130.086 350.641 126.011C354.895 119.616 359.227 113.275 363.641 106.989C365.795 103.915 369.384 98.6939 371.918 96.1315C374.588 93.3979 377.901 91.3835 381.553 90.277C386.767 88.7361 392.296 89.2262 397.082 91.8434C401.717 94.3783 404.524 98.5989 405.986 103.608C407.437 108.584 406.735 124.053 406.735 130.126L406.718 180.83L406.728 232.431C406.733 240.211 407.101 251.772 406.671 259.353C406.489 262.192 405.662 264.95 404.254 267.42C399.718 275.437 389.855 277.652 382.096 273.036C378.326 270.805 375.605 267.148 374.551 262.888C373.544 258.852 373.909 246.271 373.919 241.392L373.9 185.716L373.934 170.725C373.949 166.427 375.027 154.381 367.532 156.451C362.833 157.749 357.371 170.022 353.888 173.415C350.663 178.513 346.62 183.939 343.177 188.943C339.26 194.663 335.207 200.274 330.919 205.7C316.792 223.566 291.885 227.14 275.317 210.054C266.681 201.15 262.682 190.393 257.512 179.207L244.436 150.505L219.524 96.8492C216.676 90.7974 211.917 78.0281 207.149 73.9996C204.324 71.6132 200.755 70.1606 197.026 70.526C192.944 70.926 189.014 73.4452 186.643 76.7555C183.809 80.7119 181.583 87.1314 179.566 91.6832L169.406 114.383C151.695 153.751 135.017 193.577 119.39 233.822L111.867 252.663C109.772 257.915 107.147 266.393 103.715 270.559C94.3256 281.952 76.0466 276.175 75.1693 261.103C74.7143 253.29 77.8228 248.383 80.7513 241.42L89.056 221.505L116.192 157.305L146.057 87.2692C149.306 79.5237 152.627 71.8078 156.018 64.1236C159.374 56.3665 162.541 47.6154 168.155 41.152Z" fill="url(#paint0_linear_25_65)"/>
<path d="M201.067 164.316C203.366 164.256 205.531 164.579 206.959 166.601C207.978 168.042 208.697 170.412 208.19 172.118C205.887 179.86 196.806 183.381 190.638 187.466C187.927 189.234 185.918 191.061 184.189 193.675C180.562 199.157 183.786 202.906 185.804 208.24C186.744 210.742 187.29 213.376 187.421 216.047C187.78 223.01 185.686 224.075 184.502 229.772C184.719 230.515 184.667 230.297 185.284 230.911C185.756 231.006 186.415 231.097 186.752 230.675C192.487 223.495 192.148 212.696 188.617 204.597C187.55 202.15 185.835 199.944 186.601 197.733C188.814 191.343 197.572 187.778 203.172 184.44C201.295 188.607 198.312 193.841 200.14 198.452C202.057 203.287 207.417 205.542 212.218 203.55C212.385 204.019 212.561 204.485 212.748 204.947C213.677 207.281 215.513 209.135 217.833 210.085C219.909 210.924 221.156 210.937 223.24 210.023C225.53 209.02 228.85 206.272 227.422 203.493C226.328 203.516 222.799 209.009 218.512 206.231C217.365 205.494 216.587 204.3 216.375 202.951C216.287 202.347 216.408 201.838 216.65 201.286C217.835 198.576 219.757 196.04 221.14 193.404C223.21 189.46 225.435 183.446 227.857 180.008C228.77 178.713 230.008 177.644 231.618 177.404C233.115 177.181 234.553 177.71 235.76 178.575C237.479 179.806 238.807 181.471 238.899 183.672C239.031 186.838 231.787 208.463 230.183 212.816C228.842 216.458 227.434 220.15 225.678 223.615C223.31 228.291 219.314 232.084 217.492 237.012C216.307 240.217 215.903 243.93 216.483 247.303C217.365 252.432 220.346 256.78 224.589 259.734C232.162 265.006 242.918 265.211 251.723 263.662C268.159 260.262 281.051 252.165 292.25 239.696C294.552 237.134 298.219 230.508 302.517 233.06C303.347 233.559 303.934 234.383 304.138 235.333C304.954 239.148 299.037 248.013 296.885 251.249C273.27 286.719 221.336 296.795 186.013 273.149C168.566 262.037 156.449 243.897 152.528 223.643C150.02 210.689 152.784 193.832 163.727 185.667C171.624 179.775 191.51 166.018 201.067 164.316ZM216.546 168.498C219.474 168.29 223.162 169.212 224.407 172.242C226.679 177.777 221.106 184.316 219.003 189.307C217.685 192.437 216.097 195.724 214.261 198.516C213.707 199.358 212.553 199.884 211.656 200.301C200.146 202.552 202.832 192.249 206.338 186.186C207.216 184.571 207.865 182.58 208.743 180.993C211.205 176.539 211.301 170.42 216.546 168.498ZM194.844 111.619C205.789 111.721 202.912 121.49 201.15 128.569C198.311 139.971 196.119 151.74 193.182 163.097C188.532 165.778 183.763 167.873 178.862 170.783C176.85 172.028 175.514 172.935 173.623 174.356C175.226 169.859 176.706 162.69 177.861 157.934L184.773 129.766C185.521 126.735 186.138 123.632 186.862 120.594C188.033 115.678 189.448 112.443 194.844 111.619ZM211.587 117.754C214.271 117.602 216.436 118.182 218.146 120.442C221.007 124.225 218.715 131.087 217.889 135.437C216.789 141.31 215.658 147.179 214.498 153.041C213.587 157.519 212.435 162.351 211.844 166.836C210.805 165.136 210.48 164.454 209.08 163.041C205.466 160.103 202.143 159.797 197.821 161.287C198.71 158.634 199.506 153.853 200.147 150.946L204.63 131.293C205.335 128.226 206.036 124.597 207.147 121.685C208.052 119.313 209.422 118.647 211.587 117.754Z" fill="url(#paint1_linear_25_65)"/>
<defs>
<linearGradient id="paint0_linear_25_65" x1="382.28" y1="276.555" x2="115.93" y2="276.555" gradientUnits="userSpaceOnUse">
<stop stop-color="#155DFC"/>
<stop offset="1" stop-color="#1C398E"/>
</linearGradient>
<linearGradient id="paint1_linear_25_65" x1="147.547" y1="200.618" x2="314.734" y2="200.618" gradientUnits="userSpaceOnUse">
<stop stop-color="#1C398E"/>
<stop offset="1" stop-color="#155DFC"/>
</linearGradient>
</defs>
</svg>
